<?xml version="1.0" encoding="UTF-8"?>
<svg xmlns="http://www.w3.org/2000/svg" xmlns:xlink="http://www.w3.org/1999/xlink" width="290.403pt" height="60.401pt" viewBox="0 0 290.403 60.401">
<defs>
<g>
<g id="glyph-0-0">
<path d="M 4.84375 -3.796875 C 4.890625 -3.9375 4.890625 -3.953125 4.890625 -4.03125 C 4.890625 -4.203125 4.75 -4.296875 4.59375 -4.296875 C 4.5 -4.296875 4.34375 -4.234375 4.25 -4.09375 C 4.234375 -4.03125 4.140625 -3.734375 4.109375 -3.546875 C 4.03125 -3.296875 3.96875 -3.015625 3.90625 -2.75 L 3.453125 -0.953125 C 3.421875 -0.8125 2.984375 -0.109375 2.328125 -0.109375 C 1.828125 -0.109375 1.71875 -0.546875 1.71875 -0.921875 C 1.71875 -1.375 1.890625 -2 2.21875 -2.875 C 2.375 -3.28125 2.421875 -3.390625 2.421875 -3.59375 C 2.421875 -4.03125 2.109375 -4.40625 1.609375 -4.40625 C 0.65625 -4.40625 0.296875 -2.953125 0.296875 -2.875 C 0.296875 -2.765625 0.390625 -2.765625 0.40625 -2.765625 C 0.515625 -2.765625 0.515625 -2.796875 0.5625 -2.953125 C 0.84375 -3.890625 1.234375 -4.1875 1.578125 -4.1875 C 1.65625 -4.1875 1.828125 -4.1875 1.828125 -3.875 C 1.828125 -3.625 1.71875 -3.359375 1.65625 -3.171875 C 1.25 -2.109375 1.078125 -1.546875 1.078125 -1.078125 C 1.078125 -0.1875 1.703125 0.109375 2.296875 0.109375 C 2.6875 0.109375 3.015625 -0.0625 3.296875 -0.34375 C 3.171875 0.171875 3.046875 0.671875 2.65625 1.203125 C 2.390625 1.53125 2.015625 1.828125 1.5625 1.828125 C 1.421875 1.828125 0.96875 1.796875 0.796875 1.40625 C 0.953125 1.40625 1.09375 1.40625 1.21875 1.28125 C 1.328125 1.203125 1.421875 1.0625 1.421875 0.875 C 1.421875 0.5625 1.15625 0.53125 1.0625 0.53125 C 0.828125 0.53125 0.5 0.6875 0.5 1.171875 C 0.5 1.671875 0.9375 2.046875 1.5625 2.046875 C 2.578125 2.046875 3.609375 1.140625 3.890625 0.015625 Z M 4.84375 -3.796875 "/>
</g>
<g id="glyph-0-1">
<path d="M 1.78125 -1.140625 C 1.390625 -0.484375 1 -0.34375 0.5625 -0.3125 C 0.4375 -0.296875 0.34375 -0.296875 0.34375 -0.109375 C 0.34375 -0.046875 0.40625 0 0.484375 0 C 0.75 0 1.0625 -0.03125 1.328125 -0.03125 C 1.671875 -0.03125 2.015625 0 2.328125 0 C 2.390625 0 2.515625 0 2.515625 -0.1875 C 2.515625 -0.296875 2.4375 -0.3125 2.359375 -0.3125 C 2.140625 -0.328125 1.890625 -0.40625 1.890625 -0.65625 C 1.890625 -0.78125 1.953125 -0.890625 2.03125 -1.03125 L 2.796875 -2.296875 L 5.296875 -2.296875 C 5.3125 -2.09375 5.453125 -0.734375 5.453125 -0.640625 C 5.453125 -0.34375 4.9375 -0.3125 4.734375 -0.3125 C 4.59375 -0.3125 4.5 -0.3125 4.5 -0.109375 C 4.5 0 4.609375 0 4.640625 0 C 5.046875 0 5.46875 -0.03125 5.875 -0.03125 C 6.125 -0.03125 6.765625 0 7.015625 0 C 7.0625 0 7.1875 0 7.1875 -0.203125 C 7.1875 -0.3125 7.09375 -0.3125 6.953125 -0.3125 C 6.34375 -0.3125 6.34375 -0.375 6.3125 -0.671875 L 5.703125 -6.890625 C 5.6875 -7.09375 5.6875 -7.140625 5.515625 -7.140625 C 5.359375 -7.140625 5.3125 -7.0625 5.25 -6.96875 Z M 2.984375 -2.609375 L 4.9375 -5.90625 L 5.265625 -2.609375 Z M 2.984375 -2.609375 "/>
</g>
<g id="glyph-1-0">
<path d="M 6.5625 -2.296875 C 6.734375 -2.296875 6.921875 -2.296875 6.921875 -2.5 C 6.921875 -2.6875 6.734375 -2.6875 6.5625 -2.6875 L 1.171875 -2.6875 C 1 -2.6875 0.828125 -2.6875 0.828125 -2.5 C 0.828125 -2.296875 1 -2.296875 1.171875 -2.296875 Z M 6.5625 -2.296875 "/>
</g>
<g id="glyph-2-0">
<path d="M 4.078125 -2.296875 L 6.859375 -2.296875 C 7 -2.296875 7.1875 -2.296875 7.1875 -2.5 C 7.1875 -2.6875 7 -2.6875 6.859375 -2.6875 L 4.078125 -2.6875 L 4.078125 -5.484375 C 4.078125 -5.625 4.078125 -5.8125 3.875 -5.8125 C 3.671875 -5.8125 3.671875 -5.625 3.671875 -5.484375 L 3.671875 -2.6875 L 0.890625 -2.6875 C 0.75 -2.6875 0.5625 -2.6875 0.5625 -2.5 C 0.5625 -2.296875 0.75 -2.296875 0.890625 -2.296875 L 3.671875 -2.296875 L 3.671875 0.5 C 3.671875 0.640625 3.671875 0.828125 3.875 0.828125 C 4.078125 0.828125 4.078125 0.640625 4.078125 0.5 Z M 4.078125 -2.296875 "/>
</g>
<g id="glyph-3-0">
<path d="M 2.921875 -3.59375 L 2.921875 -3.859375 L 1.609375 -3.859375 L 1.609375 -5.515625 L 1.359375 -5.515625 C 1.359375 -4.765625 1.046875 -3.84375 0.171875 -3.8125 L 0.171875 -3.59375 L 0.953125 -3.59375 L 0.953125 -1.109375 C 0.953125 -0.109375 1.671875 0.09375 2.15625 0.09375 C 2.75 0.09375 3.0625 -0.46875 3.0625 -1.109375 L 3.0625 -1.625 L 2.8125 -1.625 L 2.8125 -1.140625 C 2.8125 -0.46875 2.53125 -0.15625 2.21875 -0.15625 C 1.609375 -0.15625 1.609375 -0.9375 1.609375 -1.109375 L 1.609375 -3.59375 Z M 2.921875 -3.59375 "/>
</g>
<g id="glyph-3-1">
<path d="M 1.640625 -6.21875 L 0.3125 -6.125 L 0.3125 -5.84375 C 0.921875 -5.84375 1 -5.78125 1 -5.34375 L 1 -0.6875 C 1 -0.28125 0.90625 -0.28125 0.3125 -0.28125 L 0.3125 0 C 0.734375 -0.015625 0.90625 -0.03125 1.34375 -0.03125 C 1.765625 -0.03125 1.890625 -0.015625 2.359375 0 L 2.359375 -0.28125 C 1.765625 -0.28125 1.671875 -0.28125 1.671875 -0.6875 L 1.671875 -2.328125 C 1.671875 -3.28125 2.34375 -3.734375 2.90625 -3.734375 C 3.4375 -3.734375 3.546875 -3.296875 3.546875 -2.765625 L 3.546875 -0.6875 C 3.546875 -0.28125 3.453125 -0.28125 2.859375 -0.28125 L 2.859375 0 C 3.28125 -0.015625 3.453125 -0.03125 3.890625 -0.03125 C 4.3125 -0.03125 4.4375 -0.015625 4.90625 0 L 4.90625 -0.28125 C 4.453125 -0.28125 4.21875 -0.28125 4.21875 -0.5625 L 4.21875 -2.28125 C 4.21875 -3.015625 4.21875 -3.28125 3.96875 -3.59375 C 3.765625 -3.84375 3.421875 -3.96875 2.96875 -3.96875 C 2.375 -3.96875 1.921875 -3.65625 1.65625 -3.140625 L 1.640625 -3.140625 Z M 1.640625 -6.21875 "/>
</g>
<g id="glyph-3-2">
<path d="M 1.59375 -2.046875 C 1.59375 -2.421875 1.6875 -3.734375 2.71875 -3.734375 C 2.703125 -3.71875 2.5625 -3.609375 2.5625 -3.40625 C 2.5625 -3.15625 2.75 -3 2.953125 -3 C 3.140625 -3 3.34375 -3.140625 3.34375 -3.40625 C 3.34375 -3.6875 3.078125 -3.96875 2.671875 -3.96875 C 2.140625 -3.96875 1.765625 -3.59375 1.546875 -3.03125 L 1.546875 -3.96875 L 0.265625 -3.859375 L 0.265625 -3.59375 C 0.875 -3.59375 0.953125 -3.53125 0.953125 -3.078125 L 0.953125 -0.6875 C 0.953125 -0.28125 0.859375 -0.28125 0.265625 -0.28125 L 0.265625 0 C 0.75 -0.015625 0.859375 -0.03125 1.3125 -0.03125 C 1.671875 -0.03125 1.890625 -0.015625 2.453125 0 L 2.453125 -0.28125 L 2.28125 -0.28125 C 1.625 -0.28125 1.59375 -0.375 1.59375 -0.703125 Z M 1.59375 -2.046875 "/>
</g>
<g id="glyph-3-3">
<path d="M 3.59375 -2.046875 C 3.78125 -2.046875 3.828125 -2.046875 3.828125 -2.25 C 3.828125 -3.171875 3.328125 -4.015625 2.171875 -4.015625 C 1.109375 -4.015625 0.265625 -3.078125 0.265625 -1.96875 C 0.265625 -0.796875 1.203125 0.09375 2.296875 0.09375 C 3.390625 0.09375 3.828125 -0.859375 3.828125 -1.0625 C 3.828125 -1.125 3.78125 -1.1875 3.703125 -1.1875 C 3.609375 -1.1875 3.59375 -1.125 3.578125 -1.078125 C 3.28125 -0.171875 2.46875 -0.15625 2.34375 -0.15625 C 1.90625 -0.15625 1.546875 -0.390625 1.34375 -0.703125 C 1.046875 -1.140625 1.03125 -1.671875 1.03125 -2.046875 Z M 1.046875 -2.265625 C 1.125 -3.65625 1.921875 -3.796875 2.171875 -3.796875 C 2.671875 -3.796875 3.203125 -3.421875 3.21875 -2.265625 Z M 1.046875 -2.265625 "/>
</g>
<g id="glyph-3-4">
<path d="M 3.078125 -3.78125 C 3.078125 -3.9375 3.078125 -4.015625 2.984375 -4.015625 C 2.9375 -4.015625 2.921875 -4.015625 2.796875 -3.90625 C 2.78125 -3.890625 2.703125 -3.8125 2.640625 -3.765625 C 2.375 -3.96875 2.09375 -4.015625 1.78125 -4.015625 C 0.59375 -4.015625 0.3125 -3.359375 0.3125 -2.90625 C 0.3125 -2.625 0.4375 -2.390625 0.640625 -2.1875 C 0.9375 -1.90625 1.28125 -1.84375 1.734375 -1.765625 C 2.203125 -1.671875 2.34375 -1.65625 2.546875 -1.5 C 2.640625 -1.421875 2.859375 -1.25 2.859375 -0.921875 C 2.859375 -0.125 1.953125 -0.125 1.828125 -0.125 C 0.921875 -0.125 0.6875 -0.890625 0.578125 -1.375 C 0.546875 -1.46875 0.53125 -1.515625 0.4375 -1.515625 C 0.3125 -1.515625 0.3125 -1.4375 0.3125 -1.28125 L 0.3125 -0.140625 C 0.3125 0.015625 0.3125 0.09375 0.40625 0.09375 C 0.46875 0.09375 0.46875 0.09375 0.640625 -0.078125 C 0.671875 -0.140625 0.765625 -0.25 0.8125 -0.296875 C 1.1875 0.078125 1.609375 0.09375 1.828125 0.09375 C 2.9375 0.09375 3.3125 -0.546875 3.3125 -1.140625 C 3.3125 -1.546875 3.140625 -1.796875 2.9375 -2 C 2.640625 -2.296875 2.3125 -2.359375 1.65625 -2.484375 C 1.421875 -2.53125 0.765625 -2.640625 0.765625 -3.15625 C 0.765625 -3.4375 0.96875 -3.828125 1.78125 -3.828125 C 2.75 -3.828125 2.8125 -3.078125 2.828125 -2.859375 C 2.84375 -2.75 2.84375 -2.6875 2.953125 -2.6875 C 3.078125 -2.6875 3.078125 -2.75 3.078125 -2.921875 Z M 3.078125 -3.78125 "/>
</g>
<g id="glyph-3-5">
<path d="M 4.34375 -1.90625 C 4.34375 -3.078125 3.40625 -4.015625 2.3125 -4.015625 C 1.171875 -4.015625 0.265625 -3.0625 0.265625 -1.90625 C 0.265625 -0.796875 1.1875 0.09375 2.296875 0.09375 C 3.4375 0.09375 4.34375 -0.8125 4.34375 -1.90625 Z M 2.3125 -0.15625 C 1.859375 -0.15625 1.484375 -0.375 1.28125 -0.71875 C 1.046875 -1.109375 1.03125 -1.578125 1.03125 -1.984375 C 1.03125 -2.328125 1.03125 -2.828125 1.25 -3.203125 C 1.53125 -3.65625 1.96875 -3.796875 2.296875 -3.796875 C 2.8125 -3.796875 3.171875 -3.5 3.359375 -3.203125 C 3.5625 -2.828125 3.5625 -2.375 3.5625 -1.984375 C 3.5625 -1.65625 3.5625 -1.140625 3.34375 -0.75 C 3.09375 -0.328125 2.6875 -0.15625 2.3125 -0.15625 Z M 2.3125 -0.15625 "/>
</g>
<g id="glyph-3-6">
<path d="M 1.65625 -6.21875 L 0.328125 -6.125 L 0.328125 -5.84375 C 0.9375 -5.84375 1.015625 -5.78125 1.015625 -5.34375 L 1.015625 -0.6875 C 1.015625 -0.28125 0.921875 -0.28125 0.328125 -0.28125 L 0.328125 0 C 0.75 -0.015625 0.921875 -0.03125 1.328125 -0.03125 C 1.75 -0.03125 1.90625 -0.015625 2.34375 0 L 2.34375 -0.28125 C 1.75 -0.28125 1.65625 -0.28125 1.65625 -0.6875 Z M 1.65625 -6.21875 "/>
</g>
<g id="glyph-3-7">
<path d="M 3.484375 -1.078125 C 3.484375 -0.921875 3.484375 -0.890625 3.359375 -0.703125 C 3.078125 -0.296875 2.65625 -0.125 2.3125 -0.125 C 1.921875 -0.125 1.5625 -0.34375 1.328125 -0.71875 C 1.09375 -1.109375 1.078125 -1.625 1.078125 -1.921875 C 1.078125 -2.34375 1.125 -2.8125 1.359375 -3.171875 C 1.5625 -3.46875 1.921875 -3.734375 2.40625 -3.734375 C 2.78125 -3.734375 3.140625 -3.546875 3.375 -3.203125 C 3.484375 -3.0625 3.484375 -3.0625 3.484375 -2.890625 Z M 3.515625 -3.4375 C 3.46875 -3.484375 3.0625 -3.96875 2.375 -3.96875 C 1.265625 -3.96875 0.3125 -3.078125 0.3125 -1.921875 C 0.3125 -0.8125 1.203125 0.09375 2.265625 0.09375 C 2.921875 0.09375 3.328125 -0.28125 3.484375 -0.46875 L 3.484375 0.09375 L 4.84375 0 L 4.84375 -0.28125 C 4.234375 -0.28125 4.15625 -0.34375 4.15625 -0.78125 L 4.15625 -6.21875 L 2.828125 -6.125 L 2.828125 -5.84375 C 3.4375 -5.84375 3.515625 -5.78125 3.515625 -5.34375 Z M 3.515625 -3.4375 "/>
</g>
<g id="glyph-3-8">
<path d="M 3.265625 -3.53125 C 3.078125 -3.484375 2.890625 -3.359375 2.890625 -3.109375 C 2.890625 -2.875 3.078125 -2.6875 3.3125 -2.6875 C 3.546875 -2.6875 3.734375 -2.84375 3.734375 -3.125 C 3.734375 -3.671875 3.109375 -4.015625 2.3125 -4.015625 C 1.171875 -4.015625 0.3125 -3.0625 0.3125 -1.9375 C 0.3125 -0.78125 1.234375 0.09375 2.296875 0.09375 C 3.546875 0.09375 3.828125 -0.984375 3.828125 -1.0625 C 3.828125 -1.171875 3.734375 -1.171875 3.703125 -1.171875 C 3.609375 -1.171875 3.609375 -1.15625 3.546875 -1 C 3.34375 -0.390625 2.84375 -0.15625 2.390625 -0.15625 C 1.8125 -0.15625 1.078125 -0.625 1.078125 -1.953125 C 1.078125 -3.34375 1.796875 -3.765625 2.328125 -3.765625 C 2.453125 -3.765625 2.9375 -3.75 3.265625 -3.53125 Z M 3.265625 -3.53125 "/>
</g>
<g id="glyph-3-9">
<path d="M 1.65625 -3.96875 L 0.359375 -3.859375 L 0.359375 -3.59375 C 0.9375 -3.59375 1.015625 -3.53125 1.015625 -3.09375 L 1.015625 -0.6875 C 1.015625 -0.28125 0.921875 -0.28125 0.328125 -0.28125 L 0.328125 0 C 0.71875 -0.015625 0.921875 -0.03125 1.3125 -0.03125 C 1.453125 -0.03125 1.828125 -0.03125 2.265625 0 L 2.265625 -0.28125 C 1.6875 -0.28125 1.65625 -0.328125 1.65625 -0.671875 Z M 1.671875 -5.53125 C 1.671875 -5.796875 1.46875 -6.015625 1.1875 -6.015625 C 0.921875 -6.015625 0.703125 -5.78125 0.703125 -5.53125 C 0.703125 -5.265625 0.921875 -5.046875 1.1875 -5.046875 C 1.46875 -5.046875 1.671875 -5.25 1.671875 -5.53125 Z M 1.671875 -5.53125 "/>
</g>
<g id="glyph-3-10">
<path d="M 6.328125 -2.046875 C 6.453125 -2.046875 6.640625 -2.046875 6.640625 -2.25 C 6.640625 -2.4375 6.46875 -2.4375 6.328125 -2.4375 L 3.78125 -2.4375 L 3.78125 -5 C 3.78125 -5.140625 3.78125 -5.3125 3.578125 -5.3125 C 3.390625 -5.3125 3.390625 -5.125 3.390625 -5 L 3.390625 -2.4375 L 0.828125 -2.4375 C 0.703125 -2.4375 0.515625 -2.4375 0.515625 -2.25 C 0.515625 -2.046875 0.6875 -2.046875 0.828125 -2.046875 L 3.390625 -2.046875 L 3.390625 0.515625 C 3.390625 0.65625 3.390625 0.828125 3.59375 0.828125 C 3.78125 0.828125 3.78125 0.640625 3.78125 0.515625 L 3.78125 -2.046875 Z M 6.328125 -2.046875 "/>
</g>
<g id="glyph-4-0">
<path d="M 6.046875 -2.046875 C 6.21875 -2.046875 6.390625 -2.046875 6.390625 -2.25 C 6.390625 -2.4375 6.203125 -2.4375 6.046875 -2.4375 L 1.109375 -2.4375 C 0.953125 -2.4375 0.765625 -2.4375 0.765625 -2.25 C 0.765625 -2.046875 0.9375 -2.046875 1.109375 -2.046875 Z M 6.046875 -2.046875 "/>
</g>
<g id="glyph-5-0">
<path d="M 1.625 -1.046875 C 1.1875 -0.328125 0.796875 -0.3125 0.4375 -0.28125 C 0.375 -0.265625 0.328125 -0.203125 0.328125 -0.109375 C 0.328125 -0.0625 0.375 0 0.453125 0 C 0.625 0 1.046875 -0.03125 1.21875 -0.03125 C 1.421875 -0.03125 1.90625 0 2.09375 0 C 2.15625 0 2.265625 0 2.265625 -0.15625 C 2.265625 -0.265625 2.15625 -0.28125 2.140625 -0.28125 C 2.046875 -0.28125 1.71875 -0.3125 1.71875 -0.578125 C 1.71875 -0.703125 1.8125 -0.875 1.84375 -0.921875 L 2.546875 -2.078125 L 4.890625 -2.078125 C 4.921875 -1.859375 4.9375 -1.5625 4.96875 -1.34375 C 5 -0.984375 5.0625 -0.59375 5.0625 -0.5625 C 5.0625 -0.4375 4.9375 -0.28125 4.40625 -0.28125 C 4.328125 -0.28125 4.203125 -0.28125 4.203125 -0.109375 C 4.203125 -0.015625 4.28125 0 4.34375 0 C 4.515625 0 4.734375 -0.015625 4.90625 -0.015625 C 5.078125 -0.015625 5.296875 -0.03125 5.4375 -0.03125 C 5.734375 -0.03125 5.765625 -0.03125 5.96875 -0.015625 C 6.109375 -0.015625 6.328125 0 6.46875 0 C 6.515625 0 6.640625 0 6.640625 -0.15625 C 6.640625 -0.28125 6.53125 -0.28125 6.4375 -0.28125 C 5.890625 -0.28125 5.890625 -0.34375 5.859375 -0.59375 L 5.234375 -6.171875 C 5.203125 -6.375 5.203125 -6.421875 5.046875 -6.421875 C 4.921875 -6.421875 4.875 -6.359375 4.796875 -6.25 Z M 2.71875 -2.34375 L 4.53125 -5.3125 L 4.859375 -2.34375 Z M 2.71875 -2.34375 "/>
</g>
</g>
</defs>
<path fill-rule="nonzero" fill="rgb(98.704529%, 94.37561%, 95.080566%)" fill-opacity="1" d="M 11.414062 47.871094 L 11.414062 26.042969 L 136.140625 26.042969 L 136.140625 47.871094 Z M 11.414062 47.871094 "/>
<path fill-rule="nonzero" fill="rgb(96.116638%, 83.129883%, 85.244751%)" fill-opacity="1" d="M 136.140625 47.871094 L 136.140625 26.042969 L 260.867188 26.042969 L 260.867188 47.871094 Z M 136.140625 47.871094 "/>
<path fill="none" stroke-width="0.3985" stroke-linecap="butt" stroke-linejoin="miter" stroke="rgb(0%, 0%, 0%)" stroke-opacity="1" stroke-miterlimit="10" d="M -130.962312 -0.00103125 L 136.799406 -0.00103125 " transform="matrix(1, 0, 0, -1, 136.142, 36.956)"/>
<path fill="none" stroke-width="0.3985" stroke-linecap="round" stroke-linejoin="round" stroke="rgb(0%, 0%, 0%)" stroke-opacity="1" stroke-miterlimit="10" d="M -2.071547 2.389594 C -1.692641 0.956 -0.848891 0.280219 -0.001235 -0.00103125 C -0.848891 -0.278375 -1.692641 -0.958062 -2.071547 -2.391656 " transform="matrix(1, 0, 0, -1, 273.14186, 36.956)"/>
<g fill="rgb(0%, 0%, 0%)" fill-opacity="1">
<use xlink:href="#glyph-0-0" x="276.859" y="38.132"/>
</g>
<path fill-rule="nonzero" fill="rgb(0%, 0%, 0%)" fill-opacity="1" d="M 76.519531 36.957031 C 76.519531 35.441406 75.292969 34.214844 73.777344 34.214844 C 72.265625 34.214844 71.039062 35.441406 71.039062 36.957031 C 71.039062 38.46875 72.265625 39.695312 73.777344 39.695312 C 75.292969 39.695312 76.519531 38.46875 76.519531 36.957031 Z M 76.519531 36.957031 "/>
<g fill="rgb(0%, 0%, 0%)" fill-opacity="1">
<use xlink:href="#glyph-1-0" x="66.169" y="51.269"/>
</g>
<g fill="rgb(0%, 0%, 0%)" fill-opacity="1">
<use xlink:href="#glyph-0-1" x="73.918" y="51.269"/>
</g>
<path fill-rule="nonzero" fill="rgb(0%, 0%, 0%)" fill-opacity="1" d="M 201.246094 36.957031 C 201.246094 35.441406 200.019531 34.214844 198.503906 34.214844 C 196.992188 34.214844 195.765625 35.441406 195.765625 36.957031 C 195.765625 38.46875 196.992188 39.695312 198.503906 39.695312 C 200.019531 39.695312 201.246094 38.46875 201.246094 36.957031 Z M 201.246094 36.957031 "/>
<g fill="rgb(0%, 0%, 0%)" fill-opacity="1">
<use xlink:href="#glyph-2-0" x="190.894" y="51.269"/>
</g>
<g fill="rgb(0%, 0%, 0%)" fill-opacity="1">
<use xlink:href="#glyph-0-1" x="198.643" y="51.269"/>
</g>
<path fill="none" stroke-width="0.79701" stroke-linecap="butt" stroke-linejoin="miter" stroke="rgb(78.431702%, 6.27594%, 18.03894%)" stroke-opacity="1" stroke-dasharray="2.98883 2.98883" stroke-miterlimit="10" d="M -0.001375 -15.590875 L -0.001375 18.709906 " transform="matrix(1, 0, 0, -1, 136.142, 36.956)"/>
<g fill="rgb(78.431702%, 6.27594%, 18.03894%)" fill-opacity="1">
<use xlink:href="#glyph-3-0" x="117.417" y="14.528"/>
<use xlink:href="#glyph-3-1" x="121.00087" y="14.528"/>
<use xlink:href="#glyph-3-2" x="126.120684" y="14.528"/>
<use xlink:href="#glyph-3-3" x="129.725177" y="14.528"/>
<use xlink:href="#glyph-3-4" x="133.824615" y="14.528"/>
<use xlink:href="#glyph-3-1" x="137.459594" y="14.528"/>
<use xlink:href="#glyph-3-5" x="142.579408" y="14.528"/>
<use xlink:href="#glyph-3-6" x="147.187241" y="14.528"/>
<use xlink:href="#glyph-3-7" x="149.747148" y="14.528"/>
</g>
<g fill="rgb(0%, 0%, 0%)" fill-opacity="1">
<use xlink:href="#glyph-3-7" x="52.658" y="21.693"/>
<use xlink:href="#glyph-3-3" x="57.777814" y="21.693"/>
<use xlink:href="#glyph-3-8" x="61.877252" y="21.693"/>
<use xlink:href="#glyph-3-9" x="65.973104" y="21.693"/>
<use xlink:href="#glyph-3-7" x="68.533011" y="21.693"/>
<use xlink:href="#glyph-3-3" x="73.652826" y="21.693"/>
</g>
<g fill="rgb(0%, 0%, 0%)" fill-opacity="1">
<use xlink:href="#glyph-4-0" x="80.823" y="21.693"/>
</g>
<g fill="rgb(0%, 0%, 0%)" fill-opacity="1">
<use xlink:href="#glyph-5-0" x="87.99" y="21.693"/>
</g>
<g fill="rgb(0%, 0%, 0%)" fill-opacity="1">
<use xlink:href="#glyph-3-7" x="177.383" y="21.693"/>
<use xlink:href="#glyph-3-3" x="182.502814" y="21.693"/>
<use xlink:href="#glyph-3-8" x="186.602252" y="21.693"/>
<use xlink:href="#glyph-3-9" x="190.698104" y="21.693"/>
<use xlink:href="#glyph-3-7" x="193.258011" y="21.693"/>
<use xlink:href="#glyph-3-3" x="198.377826" y="21.693"/>
</g>
<g fill="rgb(0%, 0%, 0%)" fill-opacity="1">
<use xlink:href="#glyph-3-10" x="205.543772" y="21.693"/>
</g>
<g fill="rgb(0%, 0%, 0%)" fill-opacity="1">
<use xlink:href="#glyph-5-0" x="212.716" y="21.693"/>
</g>
</svg>
